<?xml version="1.0" standalone="no"?>
<!DOCTYPE svg PUBLIC "-//W3C//DTD SVG 20010904//EN"
 "http://www.w3.org/TR/2001/REC-SVG-20010904/DTD/svg10.dtd">
<svg version="1.0" xmlns="http://www.w3.org/2000/svg"
 width="920.000000pt" height="920.000000pt" viewBox="0 0 920.000000 920.000000"
 preserveAspectRatio="xMidYMid meet">

<g transform="translate(0.000000,920.000000) scale(0.100000,-0.100000)"
fill="#000000" stroke="none">
<path d="M4335 7395 c-524 -63 -991 -254 -1405 -574 -308 -238 -599 -586 -769
-918 l-20 -41 140 -108 c77 -60 287 -223 465 -361 304 -236 325 -251 333 -230
58 148 110 254 178 359 268 417 698 696 1177 763 452 63 916 -70 1242 -355
l58 -51 398 398 c219 219 398 401 398 405 0 12 -84 86 -190 169 -228 177 -527
335 -810 428 -99 33 -333 88 -450 107 -141 22 -591 28 -745 9z"/>
<path d="M4658 4560 l-3 -540 762 0 763 0 -7 -32 c-11 -60 -65 -220 -99 -295
-75 -166 -236 -363 -386 -475 -37 -28 -68 -52 -68 -54 0 -4 95 -80 225 -179
50 -38 218 -168 374 -288 157 -121 291 -222 299 -225 15 -5 107 87 225 228
168 199 343 510 440 780 160 445 211 957 147 1485 -6 50 -13 100 -16 113 l-4
22 -1325 0 -1325 0 -2 -540z"/>
</g>
</svg>
